<svg width="18" height="24" viewBox="0 0 18 24" fill="none" xmlns="http://www.w3.org/2000/svg">
<g clip-path="url(#clip0_931_469)">
<path d="M13.0062 24C12.5359 24 12.0399 23.9305 11.5183 23.7914C10.1416 23.4176 8.85036 22.6614 7.46508 21.427C4.90831 19.1496 2.92447 16.2376 1.40238 12.5346C0.692636 10.8048 0.23943 9.05759 0.0598575 7.35386C0.0342043 7.10177 0.0256532 6.841 0.00855107 6.6063C0.00855107 6.51068 0 6.42376 0 6.33683C0.0256532 5.18073 0.128266 3.95509 0.701188 2.79899C1.1886 1.80804 1.94109 1.09526 2.94157 0.66063C3.66841 0.3477 4.54917 0.0260775 5.50689 0C5.53254 0 5.55819 0 5.58385 0C6.84086 0 7.90119 0.721478 8.41425 1.92104C8.95297 3.19015 9.36342 4.1724 9.74822 5.09381C10.4323 6.73669 9.80807 8.42303 8.22613 9.20536L8.13207 9.24882C7.97815 9.32705 7.83278 9.3966 7.67886 9.45744C7.44798 9.55306 7.33682 9.75299 7.39667 9.99638C7.43088 10.1268 7.45653 10.2658 7.48218 10.3962C7.55059 10.7092 7.619 11.0395 7.73872 11.3437C8.25178 12.6737 8.95297 13.6994 9.91069 14.4643C9.9962 14.5339 10.1159 14.6208 10.2784 14.6208C10.4409 14.6208 10.5606 14.5339 10.6461 14.473C11.0651 14.1427 11.6295 13.7515 12.3221 13.6472C12.5188 13.6212 12.7069 13.6038 12.895 13.6038C13.8527 13.6038 14.648 14.0036 15.2637 14.7946C15.8964 15.6117 16.5121 16.4723 17.1107 17.2981L17.3929 17.6892C18.2309 18.854 18.2052 20.3318 17.3245 21.4618C16.8713 22.0442 16.3325 22.5831 15.6998 23.0699C14.8874 23.6958 14.0067 24 13.0062 24ZM5.67791 1.5125C5.6266 1.5125 5.5753 1.5125 5.53254 1.52119C4.76295 1.61681 4.05321 1.83412 3.41188 2.14705C2.89881 2.40782 2.50546 2.77291 2.22328 3.251C1.83848 3.90293 1.6247 4.66787 1.5734 5.59797C1.48789 7.24085 1.77007 8.97066 2.44561 10.883C3.77102 14.6295 5.79762 17.7762 8.48266 20.2361C9.28646 20.9663 10.0903 21.5226 10.9539 21.9399C11.467 22.1833 12.1853 22.4701 13.1772 22.4788H13.2114C13.7416 22.4788 14.2717 22.2876 14.6822 21.9486C15.1268 21.5748 15.5971 21.1749 16.0162 20.7229C16.666 20.0188 16.6917 19.28 16.1017 18.4716L15.6485 17.8544C15.161 17.1851 14.6651 16.5158 14.1777 15.8464C13.8356 15.3857 13.3739 15.125 12.8694 15.125C12.5444 15.125 12.2109 15.2293 11.9116 15.4379C11.8176 15.4987 11.7235 15.5596 11.6295 15.6204C11.4328 15.7508 11.2276 15.8899 11.0309 16.029C10.8342 16.1767 10.6204 16.2463 10.3895 16.2463C10.2527 16.2463 10.1074 16.2202 9.94489 16.1681C9.53444 16.0377 9.14109 15.7943 8.73919 15.4379C7.69596 14.5252 6.88361 13.3169 6.32779 11.874C5.96009 10.9178 5.83183 10.1615 5.90024 9.42267C5.96009 8.8055 6.19097 8.44042 6.66128 8.25788C6.90071 8.16226 7.13159 8.04056 7.34537 7.92756C7.43088 7.8841 7.51639 7.84064 7.6019 7.79717C8.43991 7.37124 8.75629 6.53676 8.39715 5.65882C7.92684 4.52879 7.45653 3.39008 7.04608 2.42521C6.82375 1.90366 6.23373 1.5125 5.67791 1.5125Z" fill="white"/>
<path d="M13.485 6.31943C13.4252 6.79752 13.7587 7.24083 14.229 7.31037L14.4513 7.34514L11.886 9.33573C11.6979 9.4835 11.5867 9.69212 11.5525 9.91813C11.5183 10.1441 11.5782 10.3788 11.7235 10.5701C12.0143 10.9525 12.5615 11.0308 12.9378 10.7352L15.5031 8.74464L15.4689 8.97064C15.4347 9.21403 15.5031 9.44004 15.6399 9.62258C15.7767 9.80512 15.9734 9.92682 16.2128 9.96159C16.6831 10.0311 17.1193 9.68343 17.1877 9.20534L17.4955 6.91921C17.4784 7.03221 17.4356 7.12783 17.3758 7.22345C17.4442 7.11045 17.4869 6.98006 17.504 6.84967C17.504 6.84098 17.504 6.83229 17.504 6.82359C17.504 6.80621 17.504 6.79752 17.504 6.78013C17.504 6.78013 17.504 6.78013 17.504 6.77144C17.504 6.75405 17.504 6.73667 17.504 6.71928C17.504 6.68451 17.5041 6.64974 17.4955 6.61497C17.4955 6.60628 17.4955 6.5889 17.4869 6.5802C17.4869 6.56282 17.4784 6.54543 17.4784 6.53674C17.4784 6.51936 17.4698 6.51066 17.4698 6.49328V6.48459C17.4698 6.47589 17.4613 6.45851 17.4613 6.44982V6.44112C17.4613 6.43243 17.4527 6.42374 17.4527 6.41505C17.4527 6.41505 17.4527 6.41505 17.4527 6.40635C17.4442 6.38028 17.4356 6.36289 17.4185 6.33681C17.4185 6.32812 17.41 6.31943 17.41 6.31074C17.41 6.31074 17.41 6.31074 17.41 6.30204C17.41 6.29335 17.4014 6.29335 17.4014 6.28466C17.3929 6.27597 17.3843 6.25858 17.3843 6.24989C17.3672 6.22381 17.3501 6.19773 17.333 6.18035C17.3245 6.17166 17.3159 6.16296 17.3074 6.15427C17.2988 6.15427 17.2988 6.14558 17.2988 6.13689C17.2903 6.12819 17.2903 6.12819 17.2817 6.1195C17.2646 6.10212 17.2475 6.08473 17.2219 6.06735C17.2133 6.05865 17.2048 6.04996 17.1962 6.04996C17.1962 6.04996 17.1962 6.04996 17.1877 6.04127C17.1791 6.03258 17.1706 6.02388 17.162 6.02388L17.1535 6.01519C17.1449 6.0065 17.1278 5.99781 17.1193 5.98911H17.1107C17.1021 5.98042 17.085 5.97173 17.0765 5.97173C17.0679 5.96304 17.0508 5.96304 17.0423 5.95434C17.0081 5.93696 16.9739 5.92827 16.9482 5.91957C16.9397 5.91957 16.9226 5.91088 16.914 5.91088C16.8969 5.91088 16.8884 5.90219 16.8713 5.90219C16.8627 5.90219 16.8542 5.8935 16.8371 5.8935C16.7174 5.86742 16.5891 5.87611 16.4608 5.91088C16.5549 5.8848 16.6575 5.87611 16.7601 5.8848L14.4599 5.56318C14.2204 5.52841 13.9981 5.59795 13.8185 5.73703C13.639 5.87611 13.5107 6.07604 13.485 6.31943ZM17.1877 7.43207L17.162 7.44945C17.1706 7.44076 17.1877 7.43207 17.1962 7.42338L17.1877 7.43207ZM16.4095 5.90219C16.3668 5.91088 16.3326 5.92827 16.2898 5.94565C16.324 5.92827 16.3668 5.91088 16.4095 5.90219Z" fill="white"/>
</g>
<defs>
<clipPath id="clip0_931_469">
<rect width="18" height="24" fill="white"/>
</clipPath>
</defs>
</svg>
