<!-- icon666.com - MILLIONS vector ICONS FREE --><svg version="1.1" id="Capa_1" xmlns="http://www.w3.org/2000/svg" xmlns:xlink="http://www.w3.org/1999/xlink" x="0px" y="0px" viewBox="0 0 436.248 436.248" style="enable-background:new 0 0 436.248 436.248;" xml:space="preserve"><g><g><path d="M368.864,183.368c-7.363-36.765-28.921-69.145-60-90.12c-1.834-1.237-4.323-0.754-5.56,1.08s-0.754,4.323,1.08,5.56 c29.283,19.772,49.602,50.279,56.56,84.92c0.369,1.908,2.057,3.275,4,3.24c0.252,0.039,0.508,0.039,0.76,0 C367.867,187.625,369.28,185.532,368.864,183.368z"></path></g></g><g><g><path d="M280.744,77.048c-6.744-2.371-13.657-4.229-20.68-5.56c-2.209-0.409-4.331,1.051-4.74,3.26 c-0.409,2.209,1.051,4.331,3.26,4.74v-0.12c6.625,1.253,13.149,2.991,19.52,5.2c0.423,0.154,0.87,0.235,1.32,0.24 c2.209-0.024,3.98-1.835,3.956-4.044C283.362,79.098,282.311,77.617,280.744,77.048z"></path></g></g><g><g><path d="M100.164,130.668c-1.745-1.359-4.261-1.045-5.62,0.7h-0.08c-13.736,17.565-23.137,38.121-27.44,60 c-0.416,2.164,0.997,4.257,3.16,4.68c0.252,0.039,0.508,0.039,0.76,0c1.931,0.039,3.614-1.307,4-3.2 c4.051-20.636,12.934-40.019,25.92-56.56C102.223,134.543,101.909,132.027,100.164,130.668z"></path></g></g><g><g><path d="M412.784,215.448h-13.88c-1.572-97.228-79.78-175.79-177-177.8v-8.84c7.801-2.209,12.334-10.324,10.125-18.125 C229.82,2.883,221.705-1.65,213.904,0.559c-7.801,2.209-12.334,10.324-10.125,18.125c1.389,4.903,5.221,8.736,10.125,10.125v8.84 c-97.048,2.243-174.996,80.739-176.56,177.8h-13.88c-2.209,0-4,1.791-4,4v17.76c0,2.209,1.791,4,4,4h109.76 c-1.159,2.142-1.802,4.525-1.88,6.96l8,119.64c-1.8,3.2-9.44,15.32-14.76,23.6c-0.017,0.119-0.017,0.241,0,0.36h-4 c-6.893,0-12.48,5.588-12.48,12.48v28c0,2.209,1.791,4,4,4h104c2.209,0,4-1.791,4-4v-28c0-6.893-5.587-12.48-12.48-12.48h-2.68 c7.2-19.122,18.071-36.651,32-51.6c12.28-13.28,68-71.76,86.84-87.28c4.115-2.817,7.17-6.928,8.68-11.68h80.32 c2.209,0,4-1.791,4-4v-17.76C416.784,217.239,414.993,215.448,412.784,215.448z M211.224,14.768 c-0.022-3.689,2.951-6.698,6.64-6.72c3.689-0.022,6.698,2.951,6.72,6.64c0.022,3.689-2.951,6.698-6.64,6.72 c-0.013,0-0.027,0-0.04,0C214.23,21.408,211.246,18.442,211.224,14.768z M221.62,46.604 c92.413,1.99,166.854,76.431,168.844,168.844H45.344C47.396,120.146,126.318,44.552,221.62,46.604z M207.224,400.008 c2.383-0.003,4.352,1.86,4.48,4.24v5.96h-60.68c-2.209,0-4,1.791-4,4c0,2.209,1.791,4,4,4h60.68v10.28h-96v-24 c0-2.474,2.006-4.48,4.48-4.48H207.224z M318.224,246.728c-20,16.6-77.4,76.96-87.6,88c-15.424,16.348-27.192,35.792-34.52,57.04 h-62.2c13.52-21.16,13.56-21.84,13.52-23.44l-8-120.44c0.208-1.702,0.919-3.303,2.04-4.6c11.208,5.164,18.224,16.547,17.8,28.88 c-1.76,28,5.08,36.8,30.56,38.64c14.88,1.04,34.16-6.76,40.84-11.44c1.24-0.88,5.36-4,11.6-8.84 c16.88-12.88,61.4-46.96,68.2-49.32l13,0C322.005,243.301,320.239,245.162,318.224,246.728z M255.744,253.368 c4.32-5.04,8-9.4,10.6-12h8.32c-5.562,10.507-12.211,20.402-19.84,29.52c-5.32,4-11.12,8.4-17.48,13.32 c-5.72,4.36-10.24,8-11.36,8.6c-1.499,0.984-3.063,1.866-4.68,2.64c0.44-1.76,0.84-3.52,1.28-5.28 C233.224,279.568,246.184,264.488,255.744,253.368z M225.944,275.088c2.714-11.101,4.256-22.457,4.6-33.88h25.12l-6,6.96 C242.824,256.168,234.184,266.208,225.944,275.088z M212.144,299.128c-6.564,2.402-13.491,3.66-20.48,3.72 c9.752-12.212,15.928-26.889,17.84-42.4c1.56-10.76,4.28-17.32,8-18.96c0,0,0.28,0,0.44-0.28h4.8 C223.344,248.488,218.024,275.608,212.144,299.128z M201.584,259.288c-4,28.52-19.36,42.04-20,42.52 c-12.64-2.24-15.8-8.24-14.52-29.12c0.657-12.176-4.637-23.914-14.2-31.48h54C204.013,246.861,202.223,252.989,201.584,259.288z M276.344,254.728c2.812-4.211,5.096-8.752,6.8-13.52h12.04C290.504,244.368,284.384,248.768,276.344,254.728z M408.344,233.208 H27.464v-9.76h380.88V233.208z"></path></g></g><g><g><path d="M132.104,410.208h-0.68c-2.209,0-4,1.791-4,4c0,2.209,1.791,4,4,4h0.68c2.209,0,4-1.791,4-4 C136.104,411.999,134.313,410.208,132.104,410.208z"></path></g></g><g><g><path d="M289.064,105.008c-10.088-2.338-20.669,0.685-28,8c-3.056-9.958-11.071-17.609-21.16-20.2 c-7.255-1.761-14.909-0.688-21.4,3c-1.074,0.601-1.812,1.663-2,2.88c-7.173-5.957-16.735-8.181-25.8-6 c-10.108,2.572-18.143,10.228-21.2,20.2c-7.331-7.315-17.912-10.338-28-8c-7.944,1.979-14.7,7.184-18.64,14.36 c-4.061,7.31-5.177,15.895-3.12,24v0.24c0,0.76,0.44,1.52,0.76,2.56l0.24,0.68c8.36,24.56,63.24,42.52,65.6,43.48 c0.398,0.06,0.802,0.06,1.2,0c1.083,0.006,2.122-0.427,2.88-1.2c9.214-9.609,17.566-20.009,24.96-31.08 c0.071,0.292,0.179,0.574,0.32,0.84c7.28,10.739,15.442,20.854,24.4,30.24c0.758,0.773,1.797,1.206,2.88,1.2 c0.411,0.057,0.829,0.057,1.24,0c2.32-0.76,57.2-18.72,65.64-43.24l0.36-1.08c0.24-0.76,0.48-1.52,0.6-2.08 c0.018-0.146,0.018-0.294,0-0.44C315.375,126.771,305.646,109.618,289.064,105.008z M186.424,181.608 c-16.28-5.6-52.56-21.08-58.24-37.64l-0.28-0.76c0-0.6-0.36-1.16-0.56-1.88l-4,0.88l4-0.92c-1.53-6.17-0.613-12.692,2.56-18.2 c2.844-5.246,7.767-9.051,13.56-10.48c10.136-2.244,20.496,2.705,25.12,12c1.007,1.966,3.417,2.744,5.383,1.737 c1.355-0.694,2.198-2.096,2.177-3.617c-0.242-10.389,6.619-19.609,16.64-22.36c12.415-2.47,24.519,5.469,27.2,17.84 c-0.014,0.106-0.014,0.214,0,0.32c0,0.6,0.24,1.2,0.36,2v0.68C223.144,138.488,198.264,169.088,186.424,181.608z M303.247,141.409 c-0.008,0.026-0.015,0.053-0.023,0.079c0,0.6-0.32,1.16-0.6,1.96v0.64c-5.68,16.44-41.92,32-58.2,37.56 c-8.046-8.563-15.414-17.737-22.04-27.44c-0.83-1.213-2.258-1.874-3.72-1.72c6.56-11.08,11.24-22.88,9.8-32.52v-1 c0-0.76-0.28-1.56-0.52-2.56c-1.223-4.936-3.548-9.531-6.8-13.44c0.492-0.048,0.969-0.198,1.4-0.44 c4.676-2.6,10.161-3.342,15.36-2.08c10.021,2.751,16.882,11.971,16.64,22.36c-0.009,2.209,1.775,4.007,3.984,4.016 c1.507,0.006,2.889-0.835,3.576-2.176c4.624-9.295,14.984-14.244,25.12-12C299.591,116.166,306.764,129.043,303.247,141.409z"></path></g></g></svg>